<?xml version="1.0" encoding="UTF-8" standalone="no"?>
<!-- Generator: visioncortex VTracer -->

<svg
   id="svg"
   version="1.1"
   style="display:block"
   viewBox="0 0 293.39844 272.08987"
   sodipodi:docname="export-2026-02-04 060718.svg"
   width="293.39844"
   height="272.08987"
   inkscape:version="1.4 (e7c3feb100, 2024-10-09)"
   xmlns:inkscape="http://www.inkscape.org/namespaces/inkscape"
   xmlns:sodipodi="http://sodipodi.sourceforge.net/DTD/sodipodi-0.dtd"
   xmlns="http://www.w3.org/2000/svg"
   xmlns:svg="http://www.w3.org/2000/svg">
  <defs
     id="defs99" />
  <sodipodi:namedview
     id="namedview99"
     pagecolor="#ffffff"
     bordercolor="#000000"
     borderopacity="0.25"
     inkscape:showpageshadow="2"
     inkscape:pageopacity="0.0"
     inkscape:pagecheckerboard="0"
     inkscape:deskcolor="#d1d1d1"
     inkscape:zoom="0.74537037"
     inkscape:cx="511.82609"
     inkscape:cy="54.335404"
     inkscape:window-width="1920"
     inkscape:window-height="1014"
     inkscape:window-x="0"
     inkscape:window-y="0"
     inkscape:window-maximized="1"
     inkscape:current-layer="svg" />
  <path
     d="m 196.94922,13.157938 c 9.18304,6.462632 17.20739,8.973382 28.28467,10.879639 18.42255,3.185548 33.53961,11.156918 45.10595,26.214111 7.74332,11.389195 11.30026,23.663862 11.05078,37.308594 -0.0175,1.721348 -0.0344,3.442703 -0.0508,5.164062 -0.0309,2.688006 -0.0664,5.375691 -0.11279,8.063476 -0.0426,2.61169 -0.0659,5.22301 -0.0864,7.83496 -0.0186,0.79297 -0.0372,1.58593 -0.0564,2.40292 -0.0253,5.57557 1.20151,9.54647 3.31424,14.69865 0,0.99 0,1.98 0,3 4.455,1.485 4.455,1.485 9,3 -3,3 -3,3 -6,3 0.15598,0.8482 0.31195,1.6964 0.47266,2.57031 2.38148,14.35197 2.00903,27.01971 -5.89063,39.70703 -3.30849,4.62124 -7.18985,9.10024 -11.58203,12.72266 -0.66,0 -1.32,0 -2,0 0,0.66 0,1.32 0,2 -1.49365,1.15747 -1.49365,1.15747 -3.58594,2.42578 -0.76159,0.46438 -1.52319,0.92877 -2.30786,1.40722 -0.81879,0.48824 -1.63759,0.97647 -2.4812,1.4795 -0.82331,0.49983 -1.64662,0.99966 -2.49487,1.51464 -4.22954,2.54214 -8.44089,4.88782 -12.94263,6.92286 -4.62501,2.16472 -6.61836,4.88247 -9.1875,9.25 1.57781,0.77343 1.57781,0.77343 3.1875,1.5625 4.13059,2.43469 7.04566,4.89084 8.8125,9.4375 0.87049,6.72345 1.08593,12.36121 -3,18 -4.3133,4.12159 -8.04374,6.94297 -14.16797,7.03125 -6.64078,-0.44495 -10.64577,-2.6724 -15.20703,-7.59375 -1.625,-2.4375 -1.625,-2.4375 -1.625,-5.4375 -0.59426,0.4241 -1.18852,0.8482 -1.80078,1.28515 -9.09879,6.43849 -18.37008,12.44837 -28.19922,17.71485 0.33,0.66 0.66,1.32 1,2 0.39069,4.14135 0.43382,6.31186 -1.8125,9.875 -3.13835,3.04868 -5.65949,3.25166 -9.85498,3.28613 -0.94463,0.01 -1.88926,0.0192 -2.86252,0.0291 -1.01877,0.004 -2.03754,0.009 -3.08719,0.0129 -1.0493,0.006 -2.09861,0.0114 -3.17972,0.0173 -2.22084,0.009 -4.4417,0.016 -6.66256,0.0198 -3.39527,0.01 -6.78993,0.0407 -10.18506,0.0723 -2.15755,0.007 -4.3151,0.0118 -6.47266,0.0156 -1.52208,0.0185 -1.52208,0.0185 -3.07492,0.0374 -8.8225,-0.0278 -8.8225,-0.0278 -12.80789,-3.36554 -2.33287,-3.22159 -2.17684,-6.10958 -2,-10 -0.59426,-0.14696 -1.18852,-0.29391 -1.80078,-0.44532 -7.66379,-2.07387 -15.21666,-5.08964 -21.273438,-10.35937 -6.87387,-5.92093 -14.26427,-6.53144 -22.95874,-7.78443 -16.468621,-2.40721 -32.26458,-9.14091 -42.96704,-22.41088 0,-0.66 0,-1.32 0,-2 -0.66,0 -1.32,0 -2,0 -12.022341,-15.30116 -13.79587,-35.30638 -13,-54 0.16887,-1.15758 0.33773,-2.31516 0.51172,-3.50782 1.06069,-7.58608 0.41861,-12.68667 -2.38672,-19.67968 -5.38246,-14.30726 -7.5080905,-29.69455 -2.19531,-44.382818 8.01029,-17.622649 25.141439,-27.191923 41.55859,-35.722657 6.30755,-3.501385 10.16434,-9.073924 14.51172,-14.707031 1.94338,-2.407471 3.91455,-4.711094 6,-7 0.66,0 1.32,0 2,0 0.33,-0.99 0.66,-1.98 1,-3 0.66,0 1.32,0 2,0 0,-0.66 0,-1.32 0,-2 9.51422,-8.881146 20.426618,-16.123532 31.999998,-22.0000002 1.29358,-0.6651462 1.29358,-0.6651462 2.61329,-1.3437399 24.9029,-12.1009673 57.78577,-11.5936463 80.9375,4.7773441 z M 163.89844,261.22435 c -11.2675,2.24318 -22.11202,1.64905 -33.5,0.5 0,0.66 0,1.32 0,2 2.27434,1.13717 3.52583,1.12666 6.05078,1.12939 0.83426,0.003 1.66853,0.006 2.52807,0.01 0.90211,-0.002 1.80421,-0.004 2.73365,-0.006 0.92466,9.6e-4 1.84932,0.002 2.802,0.003 1.95695,6.8e-4 3.9139,-0.001 5.87085,-0.005 3.00233,-0.005 6.00451,-6e-5 9.00683,0.006 1.89844,-6.6e-4 3.79688,-0.002 5.69532,-0.004 0.9021,0.002 1.8042,0.004 2.73364,0.006 1.2514,-0.005 1.2514,-0.005 2.52808,-0.01 0.73565,-7.9e-4 1.4713,-0.002 2.22924,-0.002 1.92111,-0.0168 1.92111,-0.0168 3.82154,-1.12698 0,-1.32 0,-2.64 0,-4 -4.33062,-0.19988 -8.29246,0.6043 -12.5,1.5 z"
     style="fill:#fa700c"
     id="path1" />
  <path
     d="m 208.77344,36.724348 c 1.55531,1.317385 3.09829,2.649559 4.625,4 0.6123,0.518203 1.22461,1.036406 1.85547,1.570312 13.53022,12.322724 20.23511,30.466625 21.39843,48.328125 0.86032,22.391895 -6.48617,43.609575 -21.5664,60.289065 -6.74815,7.25033 -14.16753,13.20678 -22.77735,18.09766 -3.71808,3.3379 -4.75316,6.90013 -5.17114,11.73169 -0.15439,4.76354 -0.17594,9.52209 -0.17847,14.28784 -0.0187,1.17047 -0.0374,2.34093 -0.0566,3.54687 -0.002,1.06042 -0.004,2.12083 -0.006,3.21338 -0.61739,3.63661 -1.96768,5.30204 -4.49829,7.93506 -5.97029,2.98515 -13.325,1 -20,1 0,-21.45 0,-42.9 0,-65 4.62,-0.99 9.24,-1.98 14,-3 8.96918,-3.60829 14.12906,-7.999 18.9375,-16.375 1.81615,-6.19627 2.13501,-11.95559 -0.5625,-17.9375 -2.65068,-4.63636 -6.04186,-7.36329 -10.6875,-10.000002 -7.35169,-1.880666 -12.87273,-0.818395 -19.51562,2.812502 -4.00535,2.76628 -5.63591,5.8921 -7.17188,10.5 -0.1507,2.13661 -0.24859,4.27712 -0.3164,6.41797 -0.0419,1.25361 -0.0838,2.50722 -0.12696,3.79882 -0.0393,1.31034 -0.0786,2.62067 -0.11914,3.97071 -0.0432,1.3353 -0.0868,2.67058 -0.13086,4.00586 -0.1062,3.26877 -0.20825,6.53762 -0.30664,9.80664 -1.65,0 -3.3,0 -5,0 -0.004,-0.73525 -0.008,-1.4705 -0.0125,-2.22803 -0.0332,-3.3831 -0.10389,-6.76447 -0.17505,-10.14697 -0.006,-1.15629 -0.0116,-2.31258 -0.0176,-3.50391 -0.22621,-8.89705 -1.8777,-16.10341 -8.23243,-22.62109 -5.67294,-3.320743 -11.07304,-4.359388 -17.5625,-3.500002 -6.68085,1.922722 -10.51734,6.131292 -14,12.000002 -2.00208,6.00623 -1.73702,11.98994 0.75,17.8125 4.83578,9.52098 11.93685,13.29693 21.8164,16.60938 3.42219,0.81297 6.94334,1.14184 10.4336,1.57812 0,21.45 0,42.9 0,65 -18,0 -18,0 -23,-4 -1.34328,-2.68655 -1.14432,-4.81488 -1.17578,-7.82031 -0.0358,-1.76344 -0.0358,-1.76344 -0.0723,-3.5625 -0.0426,-2.47119 -0.074,-4.94259 -0.0937,-7.41407 -0.22712,-9.75537 -0.22712,-9.75537 -4.65821,-18.20312 -2.04955,-1.93823 -4.2435,-3.43581 -6.625,-4.9375 -1.25952,-0.85103 -2.51602,-1.70655 -3.76953,-2.56641 -0.6144,-0.4191 -1.2288,-0.83821 -1.86182,-1.27002 C 87.009973,149.6069 75.919783,131.56521 71.851563,112.34544 68.154278,90.958571 71.147818,70.022411 83.398437,51.724348 c 29.715493,-37.482039 87.258003,-44.7232064 125.375003,-15 z"
     style="fill:#fa720d"
     id="path2" />
  <path
     d="m 166.39844,1.7243476 c 13.20614,2.5979291 25.91648,7.3729643 36.6875,15.5625004 6.65832,4.419501 14.1741,5.21167 21.89355,6.598389 18.50337,3.387145 33.6994,11.186093 45.36036,26.366455 7.74331,11.389195 11.30026,23.663861 11.05078,37.308593 -0.0175,1.721349 -0.0344,3.442703 -0.0508,5.164063 -0.0309,2.688006 -0.0664,5.375691 -0.1128,8.063472 -0.0426,2.6117 -0.0658,5.22302 -0.0864,7.83497 -0.0186,0.79296 -0.0372,1.58593 -0.0564,2.40292 -0.0253,5.57556 1.20151,9.54646 3.31424,14.69864 0,0.99 0,1.98 0,3 2.97,0.99 5.94,1.98 9,3 -3,3 -3,3 -6,3 0.15598,0.8482 0.31195,1.69641 0.47266,2.57031 2.38148,14.35197 2.00902,27.01971 -5.89063,39.70703 -3.30852,4.62124 -7.18988,9.10024 -11.58206,12.72266 -0.66,0 -1.32,0 -2,0 0,0.66 0,1.32 0,2 -1.49365,1.15747 -1.49365,1.15747 -3.58594,2.42578 -0.76184,0.46479 -1.52367,0.92958 -2.30859,1.40845 -0.81856,0.48783 -1.63711,0.97566 -2.48047,1.47827 -1.2317,0.74431 -1.2317,0.74431 -2.48828,1.50366 -5.01875,3.0054 -10.06789,5.83447 -15.38672,8.2815 -1.93695,0.88634 -1.93695,0.88634 -3.75,2.90234 0,-0.66 0,-1.32 0,-2 -0.66194,0.26104 -1.32387,0.52207 -2.00586,0.79102 -12.35568,4.85553 -24.74246,9.60437 -37.30664,13.89648 -1.00032,0.35062 -2.00063,0.70125 -3.03125,1.0625 -0.93457,0.31324 -1.86914,0.62648 -2.83203,0.94922 -0.81381,0.27674 -1.62761,0.55349 -2.46607,0.83862 -2.78164,0.54516 -4.5878,0.0208 -7.35815,-0.53784 -1.77832,-0.10925 -3.55966,-0.17498 -5.34107,-0.20532 -1.0407,-0.0199 -2.0814,-0.0399 -3.15364,-0.0604 -1.11163,-0.0167 -2.22326,-0.0334 -3.36857,-0.0506 -1.14712,-0.0208 -2.29424,-0.0416 -3.47612,-0.063 -3.65764,-0.0653 -7.31535,-0.12428 -10.9731,-0.18312 -2.48243,-0.0432 -4.96485,-0.0868 -7.44727,-0.13086 -6.08,-0.10703 -12.16008,-0.20883 -18.24023,-0.3067 3.58945,-5.63214 3.58945,-5.63214 7.1,-6.54767 2.59328,-0.17632 5.13342,-0.17809 7.73203,-0.11639 1.42587,-0.006 1.42587,-0.006 2.88054,-0.0128 3.0341,-0.0109 6.06602,0.0172 9.09993,0.0519 3.0229,0.0241 6.0448,0.0392 9.06779,0.0304 1.87776,-0.005 3.75568,0.01 5.63309,0.0463 6.01192,-0.002 10.44924,-1.08304 15.48662,-4.45174 4.05075,-4.18142 4.11738,-8.49747 4.17578,-14.12109 0.0239,-1.18272 0.0477,-2.36543 0.0723,-3.58399 0.0429,-2.4842 0.0742,-4.96863 0.0937,-7.45312 0.0277,-1.18401 0.0554,-2.36801 0.084,-3.58789 0.0146,-1.07951 0.0292,-2.15902 0.0442,-3.27124 0.84595,-4.76047 3.4089,-7.16981 7.22925,-9.9397 1.4792,-0.91846 1.4792,-0.91846 2.98828,-1.85547 20.75537,-13.49225 32.67764,-33.64258 38.125,-57.5 3.93071,-21.697562 0.19028,-43.639756 -12.1875,-62.062502 -1.18237,-1.561669 -2.39128,-3.103578 -3.625,-4.625 -0.65485,-0.828867 -1.30969,-1.657734 -1.98438,-2.511719 -10.69251,-12.741257 -25.80505,-21.317572 -41.87231,-25.241943 -9.29467,-2.289903 -9.29467,-2.289903 -12.32691,-5.707276 -1.60218,-3.1680538 -2.8164,-5.9595512 -2.8164,-9.5390624 z"
     style="fill:#fb610b"
     id="path3" />
  <path
     d="m 214.14844,32.036848 c 13.72589,11.85599 23.0613,25.937589 27.25,43.6875 0.22301,0.875273 0.44601,1.750547 0.67578,2.652344 5.08617,23.008848 -1.03031,47.079738 -13.48828,66.660158 -7.36209,10.42845 -15.74267,18.39665 -26.1875,25.6875 -4.65802,2.89292 -4.65802,2.89292 -8,7 -0.11851,1.94949 -0.17907,3.90264 -0.21094,5.85547 -0.0284,1.18014 -0.0567,2.36027 -0.0859,3.57617 -0.0517,2.48423 -0.0961,4.96863 -0.13281,7.45313 -0.36487,13.99414 -0.36487,13.99414 -5.94531,19.42773 -4.33131,2.78441 -7.8742,3.93555 -13.02271,3.97803 -1.05492,0.0128 -2.10984,0.0255 -3.19673,0.0387 -1.13028,0.002 -2.26056,0.004 -3.4251,0.007 -1.17253,0.007 -2.34507,0.0133 -3.55314,0.0202 -2.47877,0.0101 -4.95757,0.0148 -7.43636,0.0145 -3.77935,0.004 -7.55752,0.0407 -11.33667,0.0786 -2.4121,0.006 -4.82421,0.01 -7.23633,0.0117 -1.68631,0.0216 -1.68631,0.0216 -3.40669,0.0436 -6.44293,-0.0373 -11.72354,-0.55823 -17.01127,-4.50449 -3.985,-5.00678 -5.1107,-8.72612 -5.17578,-15.02344 -0.0358,-1.7789 -0.0358,-1.7789 -0.0723,-3.59375 -0.0428,-2.49722 -0.0741,-4.99467 -0.0937,-7.49219 -0.0277,-1.18851 -0.0554,-2.37703 -0.084,-3.60156 -0.0146,-1.08587 -0.0292,-2.17175 -0.0442,-3.29052 -0.6486,-3.66934 -1.97782,-5.33212 -4.53003,-7.99854 -2.27495,-1.54097 -2.27495,-1.54097 -4.8125,-2.875 -19.090845,-11.78163 -32.153294,-31.45201 -37.441415,-53.02735 -4.99048,-22.047962 -3.21197,-43.596054 8.14063,-63.386715 13.7902,-21.403252 33.697305,-33.893165 58.113285,-39.710937 1.02609,-0.246211 2.05218,-0.492422 3.10937,-0.746094 26.93277,-5.3943314 57.1698,2.102868 78.64064,19.058254 z M 85.531248,48.868879 C 72.508477,66.304132 68.544297,86.297723 71.085937,107.66185 c 3.45251,21.62613 15.17975,40.58507 32.312503,54.0625 3.0764,2.00023 6.16414,3.93982 9.33594,5.78516 4.48802,3.73124 6.36664,7.48624 7.00146,13.3103 0.13591,3.53489 0.17401,7.05459 0.1626,10.59204 -0.008,2.39975 0.002,4.79963 0.0312,7.19922 -0.004,1.05405 -0.009,2.1081 -0.0137,3.19409 0.60064,3.63454 1.95569,5.29032 4.48242,7.91919 5.9703,2.98515 13.325,1 20,1 0,-21.45 0,-42.9 0,-65 -5.94,-0.99 -5.94,-0.99 -12,-2 -9.81937,-3.6982 -16.77762,-7.91075 -21.25,-17.75 -1.57942,-6.84417 -1.6863,-13.19499 1.83984,-19.42578 3.21927,-4.16454 7.44008,-7.167529 12.41016,-8.824222 6.74781,-0.826539 12.21198,0.436348 18,4.000002 7.42864,7.23314 7.50066,15.6524 7.6875,25.4375 0.0342,1.20849 0.0683,2.41699 0.10352,3.66211 0.0821,2.9667 0.15136,5.93313 0.20898,8.90039 1.65,0 3.3,0 5,0 0.009,-0.80631 0.0187,-1.61262 0.0283,-2.44336 0.054,-3.68615 0.13758,-7.37106 0.22168,-11.05664 0.0142,-1.26844 0.0284,-2.53688 0.043,-3.84375 0.18962,-7.28145 0.59426,-12.54898 4.70703,-18.65625 2.03516,-1.83985 2.03516,-1.83985 4.0625,-2.9375 0.6716,-0.38028 1.3432,-0.76055 2.03516,-1.152346 5.16938,-2.473237 10.59826,-2.940841 16.09375,-1.226562 5.73385,2.622118 8.94463,6.121038 12.12109,11.566408 1.89411,7.57645 1.03765,13.67621 -2.76562,20.49218 -7.34541,10.72133 -18.25325,12.62347 -30.54688,15.25782 0,21.45 0,42.9 0,65 16.72458,1.87409 16.72458,1.87409 23,-4 1.34328,-2.68655 1.14432,-4.81488 1.17578,-7.82031 0.0239,-1.17563 0.0477,-2.35125 0.0723,-3.5625 0.0426,-2.47119 0.074,-4.94259 0.0937,-7.41407 0.15872,-6.7768 0.32863,-12.71076 4.6582,-18.20312 2.59375,-2.14453 2.59375,-2.14453 5.5,-3.8125 19.70816,-12.28155 32.3379,-30.46035 37.80859,-52.88282 4.18396,-19.997884 1.8869,-40.933813 -9.41431,-58.309077 -11.69996,-17.20921 -29.48174,-29.395595 -49.89428,-33.995605 -33.44751,-6.151267 -66.93575,1.637764 -89.867192,28.144531 z"
     style="fill:#fefaf7"
     id="path4" />
  <path
     d="m 176.39844,21.724348 c 13.8771,2.82246 26.56532,9.480305 37,19 0.60843,0.516914 1.21687,1.033828 1.84375,1.566406 13.55094,12.288238 20.24807,30.489649 21.41015,48.332031 0.86032,22.391895 -6.48617,43.609575 -21.5664,60.289065 -6.74815,7.25033 -14.16753,13.20678 -22.77735,18.09766 -3.71808,3.3379 -4.75316,6.90013 -5.17114,11.73169 -0.15439,4.76354 -0.17594,9.52209 -0.17847,14.28784 -0.0187,1.17047 -0.0374,2.34093 -0.0566,3.54687 -0.002,1.06042 -0.004,2.12083 -0.006,3.21338 -0.61741,3.63661 -1.96769,5.30204 -4.4983,7.93506 -5.9703,2.98515 -13.32501,1 -20,1 0,-21.45 0,-42.9 0,-65 4.62,-0.99 9.24,-1.98 14,-3 8.96918,-3.60829 14.12905,-7.999 18.9375,-16.375 1.70162,-5.80554 1.84562,-11.12435 0.0312,-16.91797 -1.0824,-4.14193 -0.98236,-7.8004 -0.78125,-12.019532 0.52244,-24.044189 -7.37911,-48.617498 -16.86719,-70.476563 -1.32031,-3.210937 -1.32031,-3.210937 -1.32031,-5.210937 z"
     style="fill:#fc540a"
     id="path5" />
  <path
     d="m 238.39844,207.72435 c -0.61278,2.96175 -1.25373,4.38059 -3,7 1.57781,0.77344 1.57781,0.77344 3.1875,1.5625 4.13059,2.4347 7.04566,4.89084 8.8125,9.4375 0.87048,6.72346 1.08593,12.36122 -3,18 -4.3133,4.12159 -8.04374,6.94297 -14.16797,7.03125 -6.64078,-0.44495 -10.64578,-2.6724 -15.20703,-7.59375 -1.625,-2.4375 -1.625,-2.4375 -1.625,-5.4375 -0.59426,0.4241 -1.18852,0.8482 -1.80078,1.28515 -9.09879,6.43849 -18.37008,12.44837 -28.19922,17.71485 0.33,0.66 0.66,1.32 1,2 0.39069,4.14135 0.43382,6.31187 -1.8125,9.875 -3.13836,3.04868 -5.65949,3.25166 -9.85498,3.28613 -0.94463,0.01 -1.88927,0.0192 -2.86252,0.0291 -1.01877,0.004 -2.03755,0.009 -3.08719,0.0129 -1.04931,0.006 -2.09861,0.0114 -3.17972,0.0173 -2.22084,0.009 -4.4417,0.016 -6.66257,0.0198 -3.39526,0.01 -6.78993,0.0407 -10.18505,0.0723 -2.15755,0.006 -4.31511,0.0118 -6.47266,0.0156 -1.52209,0.0185 -1.52209,0.0185 -3.07492,0.0374 -8.8225,-0.0278 -8.8225,-0.0278 -12.80789,-3.36554 -2.33287,-3.22159 -2.17684,-6.10957 -2,-10 -0.59426,-0.14695 -1.18852,-0.29391 -1.80078,-0.44531 -10.8547,-2.93736 -20.38873,-8.61715 -29.199223,-15.55469 0,-0.33 0,-0.66 0,-1 1.25813,-0.0412 2.516251,-0.0825 3.8125,-0.125 5.375793,-0.55465 9.318983,-2.85796 13.902343,-5.59766 2.28516,-1.27734 2.28516,-1.27734 4.28516,-1.27734 0.34031,-1.36125 0.34031,-1.36125 0.6875,-2.75 1.73174,-4.28812 4.2323,-6.2099 8.3125,-8.25 1.91383,-0.0963 3.83106,-0.12796 5.74731,-0.1294 1.20498,-0.003 2.40996,-0.006 3.65145,-0.01 1.30829,0.002 2.61658,0.004 3.96452,0.006 1.3528,-6.7e-4 2.7056,-0.002 4.05839,-0.003 2.83887,-0.001 5.6777,6.8e-4 8.51656,0.005 3.63152,0.006 7.26298,0.002 10.8945,-0.004 2.79589,-0.004 5.59176,-0.002 8.38766,1.3e-4 1.988,9.9e-4 3.97601,-0.002 5.96401,-0.005 1.82165,0.005 1.82165,0.005 3.6801,0.01 1.06652,8e-4 2.13305,0.002 3.23189,0.002 2.90361,0.12707 2.90361,0.12707 5.61752,0.67176 3.07816,0.61306 4.98614,-0.12601 7.94234,-1.13454 1.64367,-0.55312 1.64367,-0.55312 3.32055,-1.11743 1.16266,-0.40597 2.32531,-0.81195 3.5232,-1.23022 1.19294,-0.40662 2.38589,-0.81324 3.61499,-1.23218 8.60801,-2.96153 17.14097,-6.10735 25.61157,-9.44141 0.80309,-0.31525 1.60617,-0.63051 2.43359,-0.95532 0.69747,-0.27787 1.39493,-0.55575 2.11353,-0.84204 1.72632,-0.59155 1.72632,-0.59155 3.72632,-0.59155 z m -74.5,53.5 c -11.2675,2.24318 -22.11202,1.64906 -33.5,0.5 0,0.66 0,1.32 0,2 2.27434,1.13717 3.52583,1.12666 6.05078,1.12939 0.83427,0.003 1.66853,0.006 2.52807,0.01 0.90211,-0.002 1.80421,-0.004 2.73365,-0.006 0.92466,9.6e-4 1.84932,0.002 2.802,0.003 1.95695,6.8e-4 3.9139,-0.001 5.87085,-0.005 3.00233,-0.005 6.00451,-5e-5 9.00684,0.006 1.89843,-6.6e-4 3.79687,-0.002 5.69531,-0.004 0.9021,0.002 1.8042,0.004 2.73364,0.006 1.2514,-0.005 1.2514,-0.005 2.52808,-0.01 0.73565,-7.9e-4 1.4713,-0.002 2.22924,-0.002 1.92112,-0.0168 1.92112,-0.0168 3.82154,-1.12698 0,-1.32 0,-2.64 0,-4 -4.33062,-0.19988 -8.29246,0.6043 -12.5,1.5 z"
     style="fill:#fd3b0b"
     id="path7" />
  <path
     d="m 128.48633,223.35204 c 1.80712,-0.009 1.80712,-0.009 3.65075,-0.0189 1.93922,0.0138 1.93922,0.0138 3.91761,0.0279 1.34851,5.2e-4 2.69702,0 4.04553,-0.002 2.82104,9e-5 5.64179,0.0105 8.46277,0.0286 3.60799,0.0227 7.21557,0.0232 10.82361,0.0165 2.78305,-0.003 5.56601,0.003 8.34904,0.0131 1.97471,0.006 3.94943,0.004 5.92415,0.003 1.80712,0.0143 1.80712,0.0143 3.65076,0.0289 1.58621,0.007 1.58621,0.007 3.20446,0.014 4.70575,0.42545 7.24532,1.66513 10.69593,4.88569 2.35292,3.06254 2.92928,5.58211 2.67968,9.41406 -1.0311,4.10807 -3.73869,6.84074 -7.28591,9.10685 -2.84576,1.10165 -5.20499,1.12297 -8.25657,1.14462 -1.83242,0.0191 -1.83242,0.0191 -3.70187,0.0387 -1.97506,0.003 -1.97506,0.003 -3.99002,0.007 -1.36997,0.006 -2.73993,0.0132 -4.10989,0.0202 -2.86982,0.012 -5.73951,0.0157 -8.60935,0.0145 -3.66753,-2e-4 -7.33429,0.0271 -11.00164,0.0615 -2.82942,0.0223 -5.65865,0.0263 -8.48814,0.0252 -2.0063,0.004 -4.01255,0.0251 -6.01873,0.0471 -11.32619,-0.0568 -11.32619,-0.0568 -16.03006,-4.50449 -2.1633,-2.74018 -2.92353,-4.48652 -3.4375,-7.9375 0.5647,-3.95295 1.91182,-5.99073 4.4375,-9.0625 3.78818,-2.76494 6.43112,-3.37504 11.08789,-3.37227 z"
     style="fill:#fef8f6"
     id="path13" />
  <path
     d="m 237.4336,215.37279 c 4.50318,2.31592 8.1133,5.58693 9.96484,10.35156 0.87049,6.72346 1.08593,12.36122 -3,18 -4.31329,4.12159 -8.04374,6.94297 -14.16797,7.03125 -6.61122,-0.44296 -10.65867,-2.62293 -15.14453,-7.59375 -3.35503,-4.84615 -3.15954,-9.74632 -2.6875,-15.4375 1.78016,-5.44519 5.38826,-8.78226 10,-12 4.84437,-1.61479 10.1173,-1.91848 15.03516,-0.35156 z"
     style="fill:#fb610a"
     id="path17" />
  <path
     d="m 139.64844,252.09544 c 1.6363,-0.004 1.6363,-0.004 3.30566,-0.007 2.3031,9.8e-4 4.60622,0.0144 6.90918,0.0393 3.52295,0.0343 7.04339,0.0207 10.56641,0.001 2.23959,0.007 4.47918,0.0166 6.71875,0.0293 1.05219,-0.005 2.10439,-0.01 3.18847,-0.015 7.29867,0.1174 7.29867,0.1174 11.20215,2.49183 2.43293,2.73418 2.82224,3.69592 3.17188,7.4021 -0.36231,4.27528 -1.27397,5.73578 -4.3125,8.6875 -2.86255,0.95419 -4.69375,1.1367 -7.66748,1.16114 -1.41695,0.0144 -1.41695,0.0144 -2.86252,0.0291 -1.01877,0.004 -2.03755,0.009 -3.08719,0.0129 -1.57396,0.008 -1.57396,0.008 -3.17972,0.0173 -2.22084,0.009 -4.4417,0.016 -6.66257,0.0198 -3.39526,0.01 -6.78993,0.0407 -10.18505,0.0723 -2.15755,0.006 -4.31511,0.0118 -6.47266,0.0156 -1.52209,0.0185 -1.52209,0.0185 -3.07492,0.0374 -8.80443,-0.0278 -8.80443,-0.0278 -12.80789,-3.36555 -2.0692,-2.63352 -1.99931,-4.0381 -1.9375,-7.4375 2.47166,-9.3923 8.81803,-9.29686 17.1875,-9.1914 z m 24.25,9.1289 c -11.2675,2.24319 -22.11202,1.64906 -33.5,0.5 0,0.66 0,1.32 0,2 2.27434,1.13717 3.52583,1.12667 6.05078,1.1294 0.83426,0.003 1.66853,0.006 2.52807,0.01 0.90211,-0.002 1.80421,-0.004 2.73365,-0.006 0.92466,9.5e-4 1.84932,0.002 2.802,0.003 1.95695,6.8e-4 3.9139,-0.001 5.87085,-0.005 3.00233,-0.005 6.00451,-5e-5 9.00683,0.006 1.89844,-6.6e-4 3.79688,-0.002 5.69532,-0.004 0.9021,0.002 1.8042,0.004 2.73364,0.006 1.2514,-0.005 1.2514,-0.005 2.52808,-0.01 0.73565,-8e-4 1.4713,-0.002 2.22924,-0.002 1.92112,-0.0168 1.92112,-0.0168 3.82154,-1.12699 0,-1.32 0,-2.64 0,-4 -4.33062,-0.19987 -8.29246,0.60431 -12.5,1.5 z"
     style="fill:#fefefe"
     id="path18" />
  <path
     d="m 134.39844,103.72435 c 5.1021,2.69545 8.17381,5.52143 10,11 0.0827,1.91907 0.1074,3.84089 0.0977,5.76172 -0.003,1.11826 -0.006,2.23652 -0.01,3.38867 -0.008,1.16724 -0.0168,2.33449 -0.0254,3.53711 -0.005,1.17885 -0.009,2.35769 -0.0137,3.57226 -0.0118,2.91347 -0.0282,5.82683 -0.0488,8.74024 -8.66931,-0.88004 -17.62314,-2.72215 -23.625,-9.5625 -3.54281,-4.6486 -4.82383,-8.35987 -4.69922,-14.1875 0.66301,-4.60113 3.80769,-8.34505 7.32422,-11.25 3.72599,-1.242 7.12979,-1.53509 11,-1 z"
     style="fill:#fb690d"
     id="path20" />
  <path
     d="m 180.39844,103.72435 c 3.64218,1.32443 6.35352,3.2701 8.9375,6.1875 2.04744,5.41969 1.85997,10.64837 -0.375,16 -3.86738,6.836 -11.13857,10.01257 -18.32422,12.36718 -2.77739,0.55257 -5.41415,0.51804 -8.23828,0.44532 -0.0875,-3.87486 -0.14057,-7.74946 -0.1875,-11.625 -0.0251,-1.09442 -0.0503,-2.18883 -0.0762,-3.31641 -0.093,-10.23039 -0.093,-10.23039 3.26367,-15.05859 4.84549,-4.37276 8.44321,-5.85215 15,-5 z"
     style="fill:#fb600e"
     id="path21" />
  <path
     d="m 129.0857,230.57909 c 1.19141,-0.006 2.38282,-0.0128 3.61033,-0.0193 1.2927,-0.001 2.58539,-0.002 3.91726,-0.003 1.33517,-0.003 2.67033,-0.007 4.0055,-0.0101 2.80018,-0.006 5.60032,-0.008 8.4005,-0.007 3.58918,1e-4 7.17816,-0.0136 10.7673,-0.0308 2.75807,-0.0111 5.51609,-0.0132 8.27418,-0.0126 1.96706,-0.002 3.9341,-0.0126 5.90113,-0.0236 1.19457,0.003 2.38913,0.006 3.61989,0.009 1.5798,-0.002 1.5798,-0.002 3.19151,-0.004 2.62514,0.24724 2.62514,0.24724 5.62514,2.24724 0.375,3 0.375,3 0,6 -3.44412,2.29608 -4.74396,2.25686 -8.80078,2.27466 -1.19134,0.01 -2.38267,0.0191 -3.61011,0.0289 -1.28753,-9.1e-4 -2.57506,-0.002 -3.90161,-0.003 -1.33374,0.004 -2.66748,0.008 -4.00122,0.013 -2.79423,0.007 -5.58833,0.007 -8.38257,0.002 -3.58142,-0.006 -7.16233,0.0112 -10.74367,0.0343 -2.75379,0.0147 -5.50747,0.0156 -8.2613,0.0125 -1.96264,7.6e-4 -3.92526,0.0146 -5.88785,0.0287 -1.787,-0.009 -1.787,-0.009 -3.61011,-0.0189 -1.05018,6.3e-4 -2.10036,0.001 -3.18237,0.002 -2.61841,-0.37422 -2.61841,-0.37422 -4.49268,-1.70218 -1.12573,-1.67204 -1.12573,-1.67204 -0.93823,-4.79704 0.26813,-0.94875 0.53625,-1.8975 0.8125,-2.875 2.66476,-1.33234 4.70329,-1.13441 7.68726,-1.14522 z"
     style="fill:#fd3a0a"
     id="path22" />
  <path
     d="m 272.39844,112.72435 c 1.14224,1.71336 2.27966,3.43001 3.40234,5.15625 0.5066,0.77344 1.0132,1.54687 1.53516,2.34375 0.50402,0.77344 1.00804,1.54687 1.52734,2.34375 2.82822,3.97246 5.12977,5.61396 9.72266,7.34375 0.90105,0.34418 1.80211,0.68836 2.73047,1.04297 0.68707,0.25394 1.37414,0.50789 2.08203,0.76953 -2.11068,2.32631 -3.92807,3.54388 -6.8125,4.75 -6.64208,3.19894 -10.26877,8.60177 -13.1875,15.25 -1.09229,-1.63843 -2.16395,-3.29476 -3.1211,-5.01563 -4.00246,-6.7935 -9.05269,-10.20688 -15.8789,-13.98437 0.99,-0.66 1.98,-1.32 3,-2 7.28706,-5.10244 11.72955,-9.66036 15,-18 z"
     style="fill:#fefcfa"
     id="path23" />
  <path
     d="m 83.398437,171.72435 c 2.305116,1.95935 3.350262,3.65221 4.8125,6.375 3.236719,5.83348 8.213158,8.92232 14.187503,11.625 0,0.66 0,1.32 0,2 -1.17563,0.495 -2.35125,0.99 -3.562503,1.5 -6.94541,3.4727 -11.443575,9.45547 -14.4375,16.5 -1.113667,-1.6705 -2.208905,-3.35527 -3.226562,-5.08594 -4.044318,-6.62003 -8.379604,-10.44945 -15.773438,-12.91406 0,-0.66 0,-1.32 0,-2 0.652266,-0.26813 1.304531,-0.53625 1.976563,-0.8125 7.725842,-3.4641 11.876092,-7.50238 15.398437,-15.1875 0.309376,-0.99 0.309376,-0.99 0.625,-2 z"
     style="fill:#fefcfb"
     id="path24" />
  <path
     d="m 151.39844,146.72435 c 1.32,0 2.64,0 4,0 0,21.12 0,42.24 0,64 -1.32,0 -2.64,0 -4,0 0,-21.12 0,-42.24 0,-64 z"
     style="fill:#fc5109"
     id="path26" />
  <path
     d="m 232.39844,168.72435 c 2,1 2,1 3.3125,3.8125 1.83899,3.47365 3.51128,4.9409 6.6875,7.1875 1.33536,0.99729 2.66904,1.99684 4,3 -0.60328,0.35191 -1.20656,0.70383 -1.82813,1.0664 -5.48465,3.3881 -8.47086,6.06183 -11.17187,11.9336 -0.66,-0.99 -1.32,-1.98 -2,-3 -3.49555,-4.63266 -6.48708,-7.76858 -12,-10 0.99,-0.66 1.98,-1.32 3,-2 0.68062,-0.53625 1.36125,-1.0725 2.0625,-1.625 1.9375,-1.375 1.9375,-1.375 3.9375,-1.375 1.52299,-2.93721 2.801,-5.91687 4,-9 z"
     style="fill:#fefaf8"
     id="path27" />
  <path
     d="m 47.398437,137.72435 c 0.66,0 1.32,0 2,0 0.5775,0.9075 1.155,1.815 1.75,2.75 2.405567,3.4747 4.727763,5.00857 8.25,7.25 0,0.66 0,1.32 0,2 -0.928125,0.61875 -1.85625,1.2375 -2.8125,1.875 -2.90288,1.93525 -4.337877,3.25808 -6.1875,6.125 -0.659999,0.99 -1.32,1.98 -2,3 -0.375117,-0.5427 -0.750234,-1.08539 -1.136718,-1.64453 -2.957469,-4.1345 -5.295038,-6.93699 -9.863282,-9.35547 0,-0.66 0,-1.32 0,-2 4.384616,-3 4.384616,-3 7,-3 1.206281,-2.33214 2.165474,-4.49642 3,-7 z"
     style="fill:#fefaf7"
     id="path30" />
  <path
     d="m 264.39844,207.72435 c 2.84821,1.46259 3.76625,2.36553 4.875,5.375 0.14762,3.10015 -0.46479,4.87878 -1.875,7.625 -2,2 -2,2 -5.9375,2.375 -2.85403,-0.0881 -3.76191,-0.14016 -6.0625,-1.9375 -1.38886,-3.38534 -1.45311,-5.81263 -1,-9.4375 2.75153,-4.12731 5.17754,-4.70328 10,-4 z"
     style="fill:#fa650a"
     id="path31" />
  <path
     d="m 10.398438,139.72435 c 2.4375,1.5625 2.4375,1.5625 4,4 0.56288,3.94016 0.60396,6.05782 -1.5625,9.4375 -3.3425633,2.14267 -5.5424526,2.05823 -9.4375005,1.5625 -2.1730527,-1.60094 -2.9043694,-2.48247 -3.398438,-5.15625 0.007735,-0.77344 0.015469,-1.54688 0.023438,-2.34375 -0.007734,-0.77344 -0.015469,-1.54688 -0.023438,-2.34375 1.0631628,-5.75359 5.3022017,-5.78211 10.3984385,-5.15625 z"
     style="fill:#fd4408"
     id="path32" />
  <path
     d="m 131.39844,258.72435 c 13.86,0 27.72,0 42,0 -2.72805,2.72805 -5.64634,2.96147 -9.3125,3.625 -0.71769,0.13043 -1.43537,0.26087 -2.17481,0.39526 -10.77453,1.82957 -20.82935,1.13566 -31.51269,-1.02026 0.33,-0.99 0.66,-1.98 1,-3 z"
     style="fill:#fd4c1e"
     id="path33" />
  <path
     d="m 10.398438,139.72435 c 0.66,1.32 1.32,2.64 2,4 -1.810404,1.33618 -3.6233789,2.66887 -5.4375005,4 -1.0093359,0.7425 -2.0186719,1.485 -3.0585937,2.25 -2.5039063,1.75 -2.5039063,1.75 -3.5039063,1.75 -0.081315,-1.43656 -0.139336,-2.87445 -0.1875,-4.3125 -0.034805,-0.80051 -0.069609,-1.60102 -0.105469,-2.42578 0.292969,-2.26172 0.292969,-2.26172 1.574219,-4.04297 2.7511267,-1.9508 5.4599806,-1.40321 8.7187505,-1.21875 z"
     style="fill:#fa6f0c"
     id="path37" />
  <path
     d="m 264.39844,207.72435 c 0,3 0,3 -1.9336,5.04297 -0.82629,0.70769 -1.65257,1.41539 -2.5039,2.14453 -0.82371,0.71543 -1.64742,1.43086 -2.4961,2.16797 -2.0664,1.64453 -2.0664,1.64453 -3.0664,1.64453 -0.48276,-6.27586 -0.48276,-6.27586 1.625,-9.4375 2.9776,-1.95895 4.87855,-1.88036 8.375,-1.5625 z"
     style="fill:#fa770c"
     id="path45" />
  <path
     d="m 268.39844,212.72435 c 1.21744,3.65234 0.64202,4.62953 -1,8 -2,2 -2,2 -5.625,2.125 -1.11375,-0.0412 -2.2275,-0.0825 -3.375,-0.125 1.49994,-3.89984 5.46124,-10 10,-10 z"
     style="fill:#fb4207"
     id="path47" />
  <path
     d="m 12.398438,141.72435 c 0.66,1.32 1.32,2.64 2,4 -1.593707,1.36646 -3.20033,2.71787 -4.8125005,4.0625 -0.8933203,0.7541 -1.7866406,1.5082 -2.7070312,2.28515 -0.8185547,0.54528 -1.6371094,1.09055 -2.4804688,1.65235 -0.99,-0.33 -1.98,-0.66 -3,-1 1.2180839,-3.65425 2.2966478,-4.08068 5.5,-6.0625 3.3405515,-1.92144 3.3405515,-1.92144 5.5000005,-4.9375 z"
     style="fill:#fb5a0a"
     id="path52" />
  <path
     d="m 7.0234375,139.59935 c 1.670625,0.0619 1.670625,0.0619 3.3750005,0.125 -2.9905172,3.33557 -5.9318468,5.15084 -10.0000005,7 0.7845762,-4.96898 1.1311244,-6.93556 6.625,-7.125 z"
     style="fill:#fa890d"
     id="path67" />
  <path
     d="m 268.39844,212.72435 c 0.33,0.99 0.66,1.98 1,3 -0.70125,0.4125 -1.4025,0.825 -2.125,1.25 -3.01654,1.83615 -5.9475,3.77563 -8.875,5.75 1.49994,-3.89984 5.46124,-10 10,-10 z"
     style="fill:#fc520b"
     id="path70" />
  <path
     d="m 264.39844,207.72435 c -1.9531,1.95309 -3.78014,3.18782 -6.125,4.625 -0.72446,0.44601 -1.44891,0.89203 -2.19532,1.35156 -0.55429,0.33773 -1.10859,0.67547 -1.67968,1.02344 0.3125,-2.375 0.3125,-2.375 1,-5 3.4352,-2.29014 4.98533,-2.17843 9,-2 z"
     style="fill:#fa8b0d"
     id="path73" />
  <path
     d="m 155.39844,203.72435 c 0,2.31 0,4.62 0,7 -1.32,0 -2.64,0 -4,0 -0.1875,-2.375 -0.1875,-2.375 0,-5 3,-2 3,-2 4,-2 z"
     style="fill:#fd3807"
     id="path78" />
</svg>
